HIERARCHY
ROOT root
{
	OFFSET	0	13.1	24.9
	CHANNELS 6  Xposition Yposition Zposition Xrotation Yrotation Zrotation
	JOINT spine_1
	{
		OFFSET	0	9.99999	0
		CHANNELS 3  Xrotation Yrotation Zrotation
		JOINT spine_2
		{
			OFFSET	0	112	-10
			CHANNELS 3  Xrotation Yrotation Zrotation
			JOINT spine_3
			{
				OFFSET	0	206.5	19.3
				CHANNELS 3  Xrotation Yrotation Zrotation
				JOINT spine_4
				{
					OFFSET	0	110.4	14.6
					CHANNELS 3  Xrotation Yrotation Zrotation
					JOINT neck_1
					{
						OFFSET	0	71.8	-50.3
						CHANNELS 3  Xrotation Yrotation Zrotation
						JOINT neck_2
						{
							OFFSET	0	86.2	-25.8
							CHANNELS 3  Xrotation Yrotation Zrotation
							JOINT head_ee
							{
								OFFSET	0	179.8	-8.7
								CHANNELS 3  Xrotation Yrotation Zrotation
								End Site
								{
									OFFSET	1	0	0
								}
							}
						}
					}
					JOINT left_clavicle
					{
						OFFSET	-43.2	22.4	-70.8
						CHANNELS 3  Xrotation Yrotation Zrotation
						JOINT left_shoulder
						{
							OFFSET	-93.9	-5.79999	48.7
							CHANNELS 3  Xrotation Yrotation Zrotation
							JOINT left_elbow
							{
								OFFSET	-291.4	-30.8	15.2
								CHANNELS 3  Xrotation Yrotation Zrotation
								JOINT left_lowarm_twist
								{
									OFFSET	-110.7	-3.89999	13.6
									CHANNELS 3  Xrotation Yrotation Zrotation
									JOINT left_hand
									{
										OFFSET	-110.7	-3.89999	13.6
										CHANNELS 3  Xrotation Yrotation Zrotation
										JOINT left_ee
										{
											OFFSET	-80.8	-5.10001	12.1
											CHANNELS 3  Xrotation Yrotation Zrotation
											End Site
											{
												OFFSET	1	0	0
											}
										}
									}
								}
							}
						}
					}
					JOINT right_clavicle
					{
						OFFSET	43.2	22.4	-70.8
						CHANNELS 3  Xrotation Yrotation Zrotation
						JOINT right_shoulder
						{
							OFFSET	93.9	-5.79999	48.7
							CHANNELS 3  Xrotation Yrotation Zrotation
							JOINT right_elbow
							{
								OFFSET	291.4	-30.8	15.2
								CHANNELS 3  Xrotation Yrotation Zrotation
								JOINT right_lowarm_twist
								{
									OFFSET	110.7	-3.89999	13.6
									CHANNELS 3  Xrotation Yrotation Zrotation
									JOINT right_hand
									{
										OFFSET	110.7	-3.89999	13.6
										CHANNELS 3  Xrotation Yrotation Zrotation
										JOINT right_ee
										{
											OFFSET	80.8	-5.10001	12.1
											CHANNELS 3  Xrotation Yrotation Zrotation
											End Site
											{
												OFFSET	1	0	0
											}
										}
									}
								}
							}
						}
					}
				}
			}
		}
	}
	JOINT left_hip
	{
		OFFSET	-82.8	-127.5	0.300001
		CHANNELS 3  Xrotation Yrotation Zrotation
		JOINT left_knee
		{
			OFFSET	-28.2	-396.7	2.2
			CHANNELS 3  Xrotation Yrotation Zrotation
			JOINT left_ankle
			{
				OFFSET	-11.7	-411.3	35.4
				CHANNELS 3  Xrotation Yrotation Zrotation
				JOINT left_toes
				{
					OFFSET	0	-60	-88.6
					CHANNELS 3  Xrotation Yrotation Zrotation
					JOINT left_foot_ee
					{
						OFFSET	-22.5	-16.5	-42.2
						CHANNELS 3  Xrotation Yrotation Zrotation
						End Site
						{
							OFFSET	1	0	0
						}
					}
				}
			}
		}
	}
	JOINT right_hip
	{
		OFFSET	82.8	-127.5	0.300001
		CHANNELS 3  Xrotation Yrotation Zrotation
		JOINT right_knee
		{
			OFFSET	28.2	-396.7	2.2
			CHANNELS 3  Xrotation Yrotation Zrotation
			JOINT right_ankle
			{
				OFFSET	11.7	-411.3	35.4
				CHANNELS 3  Xrotation Yrotation Zrotation
				JOINT right_toes
				{
					OFFSET	0	-60	-88.6
					CHANNELS 3  Xrotation Yrotation Zrotation
					JOINT right_foot_ee
					{
						OFFSET	22.5	-16.5	-42.2
						CHANNELS 3  Xrotation Yrotation Zrotation
						End Site
						{
							OFFSET	1	0	0
						}
					}
				}
			}
		}
	}
}
MOTION
Frames: 6
Frame Time: 0.02
3574.42 741.953 -1474.73 3.76555135835 68.5144699017 -1.56247388257 -0.00428728 0.293125 -0.199292 -0.00431714 0.305212 -0.180236 -0.00531999 0.336287 -0.112028 -0.00519923 0.314374 -0.163732 -28.8102 16.3317 3.51604 -31.2912 29.97 13.4735 -0.0 0.0 -0.0 4.28958 10.5753 8.61072 -10.7319 -13.7805 60.8823 2.05562 -45.514 0.862366 -0.646141 -0.0232139 0.0792513 -0.542496 1.77866 -2.85736 -0.0 0.0 -0.0 10.8261 7.4791 -21.6452 -22.1589 4.83626 -55.5267 0.89171 23.8321 -0.188177 41.8969 0.451587 5.21545 3.34347 -30.2409 -31.238 0.0 0.0 0.0 -0.0109666 27.495 -5.41088 -3.81316 0.138111 0.568798 19.6138 -15.7834 -2.91217 5.2607 -0.0 -0.0 -0.0 0.0 -0.0 8.98188 -6.6545 2.2117 -0.897591 -0.0359171 -0.133063 15.4771 19.7932 2.42411 -9.27063 0.0 0.0 0.0 0.0 0.0 
3568.1991107 746.218 -1487.5756933 2.98678439406 68.9474817261 -0.536878483328 -0.354422 0.03193 -0.20696 -0.354399 0.0450347 -0.204508 -0.354553 0.088189 -0.189933 -0.354599 0.0570859 -0.201477 -27.7686 17.4304 1.04761 -30.7458 32.9577 11.7546 -0.0 0.0 -0.0 4.31989 13.6025 8.70271 -10.682 -17.521 59.4095 2.51833 -51.2762 1.20879 -3.61374 -0.14126 0.439708 -1.06445 1.31083 -6.54474 -0.0 0.0 -0.0 10.5685 9.25352 -21.0864 -23.246 4.96011 -56.5377 0.852379 22.8914 -0.17258 45.1398 0.643243 5.58339 3.27552 -29.1896 -30.6615 0.0 0.0 0.0 4.54345 32.1429 -7.99165 -12.2591 0.307553 1.85263 14.9602 -6.55232 -2.15199 16.5309 -0.0 -0.0 -0.0 0.0 -0.0 8.29367 -6.9783 1.54424 -1.12451 -0.044666 -0.166787 12.5087 29.6227 2.21502 -8.62112 0.0 0.0 0.0 0.0 0.0 
3564.61872964 746.71 -1491.0485661 1.95438897561 68.4008733078 0.16247341092 -0.303385 -0.0495182 -0.179549 -0.303368 -0.0379927 -0.182336 -0.303234 0.00216426 -0.18624 -0.303281 -0.0272759 -0.184244 -28.0351 17.5867 0.118219 -31.1948 33.5715 11.1443 -0.0 0.0 -0.0 4.33106 14.2911 8.72665 -11.6173 -18.1985 59.3027 2.58267 -51.9791 1.25923 -4.59201 -0.184253 0.557155 -1.18841 1.49425 -7.29364 -0.0 0.0 -0.0 10.5011 9.8323 -20.935 -23.7169 4.99099 -56.7316 0.85198 22.8818 -0.172425 45.4962 0.665573 5.62316 3.27894 -29.6711 -30.7486 0.0 0.0 0.0 4.9712 31.9846 -7.8346 -13.8506 0.318202 2.09657 14.5499 -4.33364 -2.07806 17.8926 -0.0 -0.0 -0.0 0.0 -0.0 8.31234 -7.39392 1.48533 -1.53862 -0.0602874 -0.22842 11.3231 27.6777 1.96635 -7.83136 0.0 0.0 0.0 0.0 0.0 
3559.56149911 746.104 -1493.86149632 0.997017577256 65.9666162407 0.968986124054 -0.0889236 0.0950904 -0.185453 -0.0889107 0.106698 -0.179026 -0.0892482 0.14218 -0.15238 -0.0892619 0.11633 -0.172922 -28.0345 17.4694 -0.922099 -31.2281 33.7239 10.1231 -0.0 0.0 -0.0 4.43107 14.7885 8.89285 -11.7567 -17.8377 59.5333 2.57261 -51.8706 1.25131 -6.34362 -0.266229 0.765573 -1.26221 3.29059 -6.97976 -0.0 0.0 -0.0 10.444 9.61182 -20.811 -23.9356 4.99122 -56.8682 0.798015 21.5694 -0.152011 46.2457 0.713339 5.70634 3.17396 -28.8413 -29.9535 0.0 0.0 0.0 4.98427 31.7338 -7.78408 -14.5572 0.320757 2.20496 13.0854 -2.21593 -1.86696 18.8135 -0.0 -0.0 -0.0 0.0 -0.0 8.54755 -6.53914 1.58621 -2.67611 -0.100898 -0.398264 13.0089 29.4709 2.2935 -7.12341 0.0 0.0 0.0 0.0 0.0 
3557.7128788 746.592 -1499.61932504 1.52037523184 67.0597358949 0.343634998961 -0.303435 -0.0713033 -0.157415 -0.303423 -0.0611421 -0.161633 -0.303239 -0.0249003 -0.171008 -0.303276 -0.0515953 -0.164929 -26.606 17.7039 -0.885248 -29.6793 34.2702 9.8349 -0.0 0.0 -0.0 4.52488 14.3349 9.04531 -11.8478 -19.0413 59.0327 2.60197 -52.1857 1.27446 -5.60036 -0.230665 0.677438 -1.2445 1.41406 -7.70595 -0.0 0.0 -0.0 10.5145 10.6129 -20.9567 -24.4001 5.73423 -57.0749 0.779934 21.1243 -0.14543 46.3671 0.721178 5.71976 3.11457 -29.3011 -29.6391 0.0 0.0 0.0 5.87655 32.9352 -9.07769 -15.2824 0.321989 2.31622 11.3542 -1.17577 -1.62606 19.7105 -0.0 -0.0 -0.0 0.0 -0.0 7.91141 -6.42348 1.28505 -2.92489 -0.109329 -0.435515 12.1511 29.1552 2.14208 -6.71071 0.0 0.0 0.0 0.0 0.0 
3558.1460419 746.592 -1499.90468347 1.46087681075 66.0686285415 0.40848055135 -0.303435 -0.0713033 -0.157415 -0.303423 -0.0611421 -0.161633 -0.303239 -0.0249003 -0.171008 -0.303276 -0.0515953 -0.164929 -26.606 17.7039 -0.885248 -29.6793 34.2702 9.8349 -0.0 0.0 -0.0 4.52488 14.3349 9.04531 -11.8478 -19.0413 59.0327 2.60197 -52.1857 1.27446 -5.60036 -0.230665 0.677438 -1.2445 1.41406 -7.70595 -0.0 0.0 -0.0 10.5145 10.6129 -20.9567 -24.4001 5.73423 -57.0749 0.779934 21.1243 -0.14543 46.3671 0.721178 5.71976 3.11457 -29.3011 -29.6391 0.0 0.0 0.0 5.87655 32.9352 -9.07769 -15.2824 0.321989 2.31622 11.3542 -1.17577 -1.62606 19.7105 -0.0 -0.0 -0.0 0.0 -0.0 7.91141 -6.42348 1.28505 -2.92489 -0.109329 -0.435515 12.1511 29.1552 2.14208 -6.71071 0.0 0.0 0.0 0.0 0.0 
